<svg width="36" height="37" viewBox="0 0 36 37" fill="none" xmlns="http://www.w3.org/2000/svg">
<path d="M18 32.375C25.663 32.375 31.875 26.163 31.875 18.5C31.875 10.837 25.663 4.625 18 4.625C10.337 4.625 4.125 10.837 4.125 18.5C4.125 26.163 10.337 32.375 18 32.375Z" stroke="#E57B3E" stroke-width="2"/>
<path d="M18 26.375C22.3492 26.375 25.875 22.8492 25.875 18.5C25.875 14.1508 22.3492 10.625 18 10.625C13.6508 10.625 10.125 14.1508 10.125 18.5C10.125 22.8492 13.6508 26.375 18 26.375Z" stroke="#E57B3E" stroke-width="2"/>
<path d="M18 21.5C19.6569 21.5 21 20.1569 21 18.5C21 16.8431 19.6569 15.5 18 15.5C16.3431 15.5 15 16.8431 15 18.5C15 20.1569 16.3431 21.5 18 21.5Z" fill="#E57B3E"/>
</svg>
