<svg width="36" height="36" viewBox="0 0 36 36" fill="none" xmlns="http://www.w3.org/2000/svg">
<path d="M18 33L15 24H3L6 33H18ZM18 33H24M18 19.5V18.75C18 15.921 18 14.508 17.121 13.629C16.242 12.75 14.829 12.75 12 12.75C9.171 12.75 7.758 12.75 6.879 13.629C6 14.508 6 15.921 6 18.75V19.5M21 26.25H30C30.7957 26.25 31.5587 26.5661 32.1213 27.1287C32.6839 27.6913 33 28.4544 33 29.25V30C33 30.7957 32.6839 31.5587 32.1213 32.1213C31.5587 32.6839 30.7957 33 30 33H28.5M28.5 19.5C28.5 20.2957 28.1839 21.0587 27.6213 21.6213C27.0587 22.1839 26.2957 22.5 25.5 22.5C24.7044 22.5 23.9413 22.1839 23.3787 21.6213C22.8161 21.0587 22.5 20.2957 22.5 19.5C22.5 18.7044 22.8161 17.9413 23.3787 17.3787C23.9413 16.8161 24.7044 16.5 25.5 16.5C26.2957 16.5 27.0587 16.8161 27.6213 17.3787C28.1839 17.9413 28.5 18.7044 28.5 19.5ZM15 6C15 6.79565 14.6839 7.55871 14.1213 8.12132C13.5587 8.68393 12.7957 9 12 9C11.2044 9 10.4413 8.68393 9.87868 8.12132C9.31607 7.55871 9 6.79565 9 6C9 5.20435 9.31607 4.44129 9.87868 3.87868C10.4413 3.31607 11.2044 3 12 3C12.7957 3 13.5587 3.31607 14.1213 3.87868C14.6839 4.44129 15 5.20435 15 6Z" stroke="#E57B3E" stroke-width="2" stroke-linecap="round" stroke-linejoin="round"/>
</svg>
