<svg width="36" height="36" viewBox="0 0 36 36" fill="none" xmlns="http://www.w3.org/2000/svg">
<path d="M3 33H32.25M4.5 19.5V33M31.5 19.5V33M11.25 12V33M24.75 12V33M3 19.5H10.5M33 19.5H25.5M9.75 12H26.25M18 12V7.47298M18 7.47298V4.45498C18 3.74398 18 3.38848 18.219 3.16798C18.909 2.47348 21.75 4.11448 22.83 4.78048C23.742 5.34148 24 6.46348 24 7.47298H18ZM18 33V30M15.75 18V18.75M20.25 18V18.75M15.75 24V24.75M20.25 24V24.75" stroke="#E57B3E" stroke-width="2" stroke-linecap="round" stroke-linejoin="round"/>
</svg>
